<?xml version="1.0" encoding="UTF-8"?>
<svg width="298px" height="223px" viewBox="0 0 298 223" version="1.1" xmlns="http://www.w3.org/2000/svg" xmlns:xlink="http://www.w3.org/1999/xlink">
    <!-- Generator: Sketch 48.2 (47327) - http://www.bohemiancoding.com/sketch -->
    <title>aws cloud</title>
    <desc>Created with Sketch.</desc>
    <defs></defs>
    <g id="Amazon-Cloud-Tiered" stroke="none" stroke-width="1" fill="none" fill-rule="evenodd" transform="translate(-314.000000, -723.000000)">
        <g id="aws-cloud" transform="translate(314.000000, 723.000000)">
            <g id="Amazon_Web_Services_Logo" transform="translate(83.000000, 102.000000)">
                <g>
                    <path d="M34.8955978,29.0376596 C34.8955978,30.6829787 35.0675042,32.0170213 35.3683402,32.9953191 C35.7121529,33.973617 36.1419187,35.0408511 36.7435908,36.1970213 C36.9584737,36.552766 37.0444269,36.9085106 37.0444269,37.2197872 C37.0444269,37.6644681 36.7865674,38.1091489 36.2278719,38.5538298 L33.5203472,40.4214894 C33.133558,40.6882979 32.7467688,40.8217021 32.4029561,40.8217021 C31.9731903,40.8217021 31.5434245,40.5993617 31.1136587,40.1991489 C30.5119865,39.5321277 29.9962675,38.8206383 29.5665017,38.1091489 C29.1367359,37.3531915 28.7069701,36.5082979 28.2342277,35.4855319 C24.8820543,39.5765957 20.6703494,41.6221277 15.5991127,41.6221277 C11.9890799,41.6221277 9.10964894,40.5548936 7.00379644,38.4204255 C4.89794395,36.2859574 3.82352941,33.44 3.82352941,29.8825532 C3.82352941,26.102766 5.11282686,23.0344681 7.73439833,20.7221277 C10.3559698,18.4097872 13.8370729,17.253617 18.2636608,17.253617 C19.7248646,17.253617 21.2290449,17.3870213 22.8191784,17.6093617 C24.4093119,17.8317021 26.042422,18.1874468 27.7614853,18.5876596 L27.7614853,15.3414894 C27.7614853,11.9619149 27.07386,9.60510638 25.741586,8.22659574 C24.3663354,6.84808511 22.0456,6.18106383 18.7364032,6.18106383 C17.2322228,6.18106383 15.6850659,6.35893617 14.0949324,6.75914894 C12.5047989,7.1593617 10.9576419,7.64851064 9.45346159,8.27106383 C8.76583628,8.58234043 8.25011731,8.76021277 7.94928124,8.84914894 C7.64844516,8.93808511 7.43356226,8.98255319 7.26165593,8.98255319 C6.65998379,8.98255319 6.35914772,8.53787234 6.35914772,7.60404255 L6.35914772,5.42510638 C6.35914772,4.71361702 6.44510088,4.18 6.65998379,3.8687234 C6.8748667,3.55744681 7.26165593,3.24617021 7.86332807,2.93489362 C9.36750842,2.13446809 11.1725248,1.46744681 13.2783773,0.933829787 C15.3842298,0.355744681 17.6190121,0.0889361702 19.9827241,0.0889361702 C25.0969373,0.0889361702 28.8358998,1.28957447 31.2425884,3.69085106 C33.6063004,6.09212766 34.8096447,9.73851064 34.8096447,14.63 L34.8096447,29.0376596 L34.8955978,29.0376596 Z M17.4471057,35.7968085 C18.8653329,35.7968085 20.3265367,35.53 21.8736936,34.996383 C23.4208506,34.462766 24.7961012,33.4844681 25.9564689,32.1504255 C26.6440942,31.3055319 27.1598132,30.3717021 27.4176727,29.3044681 C27.6755321,28.237234 27.8474385,26.9476596 27.8474385,25.4357447 L27.8474385,23.5680851 C26.6011176,23.2568085 25.2688436,22.99 23.893593,22.8121277 C22.5183424,22.6342553 21.1860683,22.5453191 19.8537943,22.5453191 C16.9743633,22.5453191 14.8685109,23.1234043 13.4502837,24.3240426 C12.0320565,25.5246809 11.3444312,27.2144681 11.3444312,29.4378723 C11.3444312,31.5278723 11.8601502,33.0842553 12.9345647,34.1514894 C13.9660026,35.2631915 15.470183,35.7968085 17.4471057,35.7968085 Z M51.9573007,40.5993617 C51.1837222,40.5993617 50.6680032,40.4659574 50.3241906,40.1546809 C49.9803779,39.8878723 49.6795419,39.2653191 49.4216824,38.4204255 L39.3221857,4.04659574 C39.0643262,3.15723404 38.9353965,2.57914894 38.9353965,2.26787234 C38.9353965,1.55638298 39.2792091,1.15617021 39.9668344,1.15617021 L44.1785394,1.15617021 C44.9950945,1.15617021 45.55379,1.28957447 45.8546261,1.60085106 C46.1984388,1.86765957 46.4562983,2.49021277 46.7141577,3.33510638 L53.9342234,32.7729787 L60.6385701,3.33510638 C60.8534531,2.44574468 61.1113125,1.86765957 61.4551252,1.60085106 C61.7989378,1.33404255 62.40061,1.15617021 63.1741885,1.15617021 L66.612315,1.15617021 C67.42887,1.15617021 67.9875656,1.28957447 68.3313782,1.60085106 C68.6751909,1.86765957 68.976027,2.49021277 69.1479333,3.33510638 L75.9382332,33.1287234 L83.3731818,3.33510638 C83.6310412,2.44574468 83.9318773,1.86765957 84.2327134,1.60085106 C84.576526,1.33404255 85.1352216,1.15617021 85.9088001,1.15617021 L89.9056221,1.15617021 C90.5932475,1.15617021 90.9800367,1.51191489 90.9800367,2.26787234 C90.9800367,2.49021277 90.9370601,2.71255319 90.8940835,2.9793617 C90.8511069,3.24617021 90.7651538,3.60191489 90.5932475,4.09106383 L80.2358913,38.4648936 C79.9780318,39.3542553 79.6771958,39.9323404 79.3333831,40.1991489 C78.9895704,40.4659574 78.4308749,40.6438298 77.700273,40.6438298 L74.004287,40.6438298 C73.1877319,40.6438298 72.6290364,40.5104255 72.2852237,40.1991489 C71.9414111,39.8878723 71.640575,39.3097872 71.4686687,38.4204255 L64.8072986,9.73851064 L58.188905,38.3759574 C57.9740221,39.2653191 57.7161626,39.8434043 57.37235,40.1546809 C57.0285373,40.4659574 56.4268652,40.5993617 55.6532867,40.5993617 L51.9573007,40.5993617 Z M107.182208,41.8 C104.947426,41.8 102.712643,41.5331915 100.563814,40.9995745 C98.4149853,40.4659574 96.7388986,39.8878723 95.6215075,39.2208511 C94.9338822,38.8206383 94.4611398,38.3759574 94.2892335,37.9757447 C94.1173271,37.5755319 94.031374,37.1308511 94.031374,36.7306383 L94.031374,34.462766 C94.031374,33.5289362 94.3751866,33.0842553 95.0198353,33.0842553 C95.2776948,33.0842553 95.5355543,33.1287234 95.7934138,33.2176596 C96.0512733,33.3065957 96.4380625,33.4844681 96.8678283,33.6623404 C98.3290321,34.3293617 99.9191656,34.8629787 101.595252,35.2187234 C103.314316,35.5744681 104.990402,35.7523404 106.709466,35.7523404 C109.41699,35.7523404 111.522843,35.2631915 112.984046,34.2848936 C114.44525,33.3065957 115.218829,31.883617 115.218829,30.0604255 C115.218829,28.8153191 114.832039,27.7925532 114.058461,26.9476596 C113.284882,26.102766 111.823679,25.3468085 109.717826,24.6353191 L103.486222,22.6342553 C100.348931,21.6114894 98.028196,20.0995745 96.6099689,18.0985106 C95.1917417,16.1419149 94.4611398,13.9629787 94.4611398,11.6506383 C94.4611398,9.78297872 94.847929,8.13765957 95.6215075,6.71468085 C96.395086,5.29170213 97.4265239,4.04659574 98.7158214,3.06829787 C100.005119,2.04553191 101.466323,1.28957447 103.185386,0.755957447 C104.904449,0.222340426 106.709466,0 108.600435,0 C109.54592,0 110.534381,0.0444680851 111.479866,0.17787234 C112.468327,0.311276596 113.370836,0.489148936 114.273344,0.667021277 C115.132875,0.889361702 115.949431,1.11170213 116.723009,1.37851064 C117.496587,1.64531915 118.09826,1.91212766 118.528025,2.17893617 C119.129698,2.53468085 119.559463,2.89042553 119.817323,3.2906383 C120.075182,3.64638298 120.204112,4.13553191 120.204112,4.75808511 L120.204112,6.84808511 C120.204112,7.78191489 119.860299,8.27106383 119.215651,8.27106383 C118.871838,8.27106383 118.313143,8.09319149 117.582541,7.73744681 C115.132875,6.5812766 112.382374,6.00319149 109.331037,6.00319149 C106.881372,6.00319149 104.947426,6.40340426 103.615152,7.24829787 C102.282878,8.09319149 101.595252,9.38276596 101.595252,11.2059574 C101.595252,12.4510638 102.025018,13.5182979 102.88455,14.3631915 C103.744081,15.2080851 105.334215,16.0529787 107.611974,16.8089362 L113.714648,18.81 C116.808962,19.832766 119.043744,21.2557447 120.376018,23.0789362 C121.708292,24.9021277 122.352941,26.9921277 122.352941,29.3044681 C122.352941,31.2165957 121.966152,32.9508511 121.23555,34.462766 C120.461972,35.9746809 119.430534,37.3087234 118.09826,38.3759574 C116.765986,39.4876596 115.175852,40.2880851 113.327859,40.8661702 C111.393913,41.4887234 109.374014,41.8 107.182208,41.8 Z" id="Shape" fill="#252F3E" fill-rule="nonzero"></path>
                    <g id="Group" transform="translate(0.000000, 49.400000)" fill="#FF9900">
                        <path d="M117.301325,12.0091176 C103.139073,21.5147059 82.5629139,26.5608824 64.8708609,26.5608824 C40.0761589,26.5608824 17.7350993,18.2288235 0.860927152,4.38117647 C-0.473509934,3.28588235 0.731788079,1.79941176 2.32450331,2.66 C20.5761589,12.2829412 43.089404,18.1114706 66.3774834,18.1114706 C82.089404,18.1114706 99.3509934,15.1385294 115.235099,9.03617647 C117.602649,8.05823529 119.625828,10.4444118 117.301325,12.0091176 Z" id="Shape"></path>
                        <path d="M123.198675,5.90676471 C121.390728,3.79441176 111.231788,4.88970588 106.625828,5.39823529 C105.248344,5.55470588 105.033113,4.45941176 106.281457,3.63794118 C114.374172,-1.52558824 127.675497,-0.0391176471 129.225166,1.68205882 C130.774834,3.44235294 128.794702,15.5297059 121.218543,21.3191176 C120.056291,22.2188235 118.937086,21.7494118 119.453642,20.5758824 C121.175497,16.7032353 125.006623,7.98 123.198675,5.90676471 Z" id="Shape"></path>
                    </g>
                </g>
            </g>
            <path d="M214.769531,46.7486793 C211.471342,39.7799293 207.203162,33.4403367 201.964844,27.729827 C196.726525,22.0192802 190.906287,17.131529 184.503906,13.0663877 C178.101525,9.0012835 171.117225,5.80729167 163.550781,3.484375 C155.984338,1.16145833 148.029973,0 139.6875,0 C128.628869,0 118.200881,1.9841425 108.403311,5.95246467 C98.6057415,9.920824 89.9723835,15.4376953 82.502939,22.5032645 C75.0334945,29.5688337 68.9707217,37.7957497 64.3144345,47.1842355 C59.6581845,56.5727585 56.9420635,66.6869978 56.165997,77.5273623 C48.0175222,79.850279 40.4997273,83.2862258 33.6123065,87.8352772 C26.7249008,92.3843657 20.8076414,97.756064 15.8603497,103.950521 C10.9130617,110.144978 7.03289312,117.065299 4.2197247,124.711598 C1.40656149,132.357896 0,140.342857 0,148.666667 C0,158.5391 1.94008467,167.830692 5.8203125,176.541667 C9.7005407,185.252641 14.987273,192.947234 21.6806622,199.625653 C28.3740551,206.304068 36.2313988,211.675763 45.252939,215.740885 C54.274442,219.80601 64.0234003,222.128903 74.5,222.709635 C74.5,222.709635 81.1933035,222.709635 94.5800595,222.709635 C107.966853,222.709635 122.76002,222.758029 138.95997,222.854818 C155.159921,222.951606 170.098549,223 183.776376,223 C197.454167,223 204.486967,223 204.875,223 C217.097731,223 228.835243,220.677107 240.087872,216.03125 C251.340538,211.385394 261.234995,205.094222 269.771503,197.157552 C278.307974,189.220882 285.146776,179.880906 290.288095,169.13736 C295.429377,158.393815 298,146.924554 298,134.729167 C298,122.920945 295.86591,111.838811 291.597656,101.482431 C287.329402,91.126051 281.412165,82.0280227 273.845685,74.1881603 C266.279241,66.3482608 257.451885,59.9603143 247.363281,55.0240978 C237.274677,50.0878813 226.410231,47.3294457 214.769531,46.7486793 Z M204.891398,204.597087 C204.502907,204.597087 197.510372,204.597087 183.91357,204.597087 C170.316768,204.597087 155.409047,204.597087 139.189997,204.597087 C122.970948,204.597087 108.111821,204.597087 94.6121322,204.597087 C81.1124432,204.597087 74.362692,204.597087 74.362692,204.597087 C74.362692,204.597087 71.4491421,204.015238 65.6219305,202.851517 C59.7947188,201.687796 53.3363449,199.214932 46.246585,195.432841 C39.1568252,191.650753 32.7469856,186.074685 27.0169022,178.704479 C21.2868151,171.334243 18.4218182,161.345782 18.4218182,148.738835 C18.4218182,141.756516 19.9271573,134.968249 22.9378802,128.373847 C25.9485994,121.779445 29.9790237,115.91243 35.0292651,110.772688 C40.0795139,105.63291 45.9551704,101.46298 52.6564768,98.2627486 C59.357746,95.0625176 66.5931013,93.2684995 74.362692,92.8805825 C74.362692,83.1829196 75.8680236,73.8733226 78.8787614,64.9514563 C81.889462,56.02959 86.2112674,48.1261314 91.844215,41.2407826 C97.4771627,34.3554337 104.324027,28.82785 112.384995,24.6578825 C120.445963,20.4878778 129.526547,18.4029126 139.627045,18.4029126 C155.554717,18.4029126 168.762879,22.7667827 179.25183,31.4946719 C189.740781,40.2225983 196.830467,51.3747357 200.520998,64.9514563 C212.175421,64.5635394 222.761337,66.3091098 232.279117,70.1881675 C241.796897,74.0672252 250.003386,79.1584442 256.898919,85.4618991 C263.794452,91.7653911 269.184542,98.8930531 273.069337,106.845146 C276.954133,114.797238 279.090739,122.555242 279.479229,130.119417 C280.061947,140.398937 278.071011,150.047966 273.506385,159.066802 C268.941721,168.085601 262.968952,175.989097 255.587814,182.777439 C248.206677,189.565822 240.000151,194.899454 230.968012,198.778519 C221.935836,202.657585 213.243706,204.597087 204.891398,204.597087 Z" id="Page-1" fill="#1A3867"></path>
        </g>
    </g>
</svg>